<svg xmlns="http://www.w3.org/2000/svg" width="33" height="33" viewBox="0 0 33 33" fill="none">
  <path d="M20.8298 18.6474C24.7579 14.3438 29.2203 13.3436 31.8486 13.1609C31.1747 9.44877 29.2059 6.09246 26.2983 3.68823L6.63867 29.024C9.37773 31.0147 12.68 32.0822 16.0689 32.0726C16.6514 32.0726 17.2339 32.0389 17.8115 31.9764C17.6575 30.2213 17.2772 22.5326 20.8298 18.6426V18.6474Z" fill="#E15100"/>
  <path d="M18.8757 31.8177C22.7172 31.1301 26.1783 29.0721 28.6045 26.0187L20.9601 20.2197C18.5003 23.9271 18.7602 30.1925 18.8709 31.8129L18.8757 31.8177Z" fill="#E15100"/>
  <path d="M10.9996 12.3724L3.01828 6.6792C1.04943 9.40079 -0.00479741 12.6754 1.64124e-05 16.0317C1.64124e-05 16.5654 0.0288984 17.0943 0.0818504 17.6233C4.29394 17.4646 8.24609 15.5604 10.9996 12.3724Z" fill="#E15100"/>
  <path d="M16.0496 1.632e-05C15.5923 1.632e-05 15.1446 0.0240582 14.6921 0.0625259C14.9665 2.83701 15.1783 8.95337 12.3478 12.4636C7.87091 18.0269 2.28206 18.6713 0.226562 18.7146C0.8668 22.4892 2.83565 25.908 5.78171 28.3555L25.4365 3.02454C22.7071 1.05307 19.4241 -0.00479214 16.0544 1.632e-05H16.0496Z" fill="#E15100"/>
  <path d="M13.6096 0.177979C9.72005 0.774228 6.18671 2.77936 3.67871 5.8135L11.6889 11.526C14.0477 8.3139 13.8551 2.75531 13.6096 0.177979Z" fill="#E15100"/>
  <path d="M32.0075 14.2573C28.012 14.5458 24.2909 16.3827 21.6289 19.3783L29.2444 25.1485C31.1073 22.4702 32.099 19.287 32.0941 16.0316C32.0941 15.4402 32.0653 14.8488 32.0027 14.2621L32.0075 14.2573Z" fill="#E15100"/>
</svg>