<svg class="g-svg" width="16" height="17" viewBox="0 0 16 17" fill="none" xmlns="http://www.w3.org/2000/svg">
<path d="M14.2997 0H1.57129C0.702068 0 0 0.732449 0 1.63929V14.9185C0 15.8222 0.702068 16.5578 1.57129 16.5578H7.01155V10.4667H5.39163V8.2662H7.01155V6.96936C7.01155 5.81837 7.37018 4.89884 8.08744 4.21079C8.80471 3.52273 9.74687 3.18028 10.9139 3.18028C11.5096 3.18028 11.999 3.2437 12.3849 3.37053V5.68837C11.999 5.52983 11.6342 5.45056 11.2908 5.45056C10.3213 5.45056 9.83805 6.01179 9.83805 7.13107V8.26303H12.0445V10.4636H9.83805V16.5546H14.2997C15.1659 16.5546 15.871 15.8222 15.871 14.9153V1.63929C15.871 0.732449 15.1689 0 14.2997 0Z" fill="white"/>
</svg>

