<svg width="13" height="17" viewBox="0 0 13 17" fill="none" xmlns="http://www.w3.org/2000/svg">
<path d="M9.27006 5.37845C9.27296 6.96849 9.27643 8.55854 9.27759 10.1486C9.27759 10.6426 9.29207 11.1386 9.2608 11.6301C9.21448 12.3661 9.02572 13.0625 8.69569 13.7097C8.44672 14.1993 8.13174 14.6334 7.75192 15.0017C7.24529 15.4926 6.67439 15.8621 6.01838 16.0747C5.66809 16.1877 5.31837 16.2611 4.95534 16.2949C3.75564 16.406 2.69896 16.0121 1.75808 15.2111C0.992061 14.5587 0.470959 13.7123 0.197669 12.6904C0.111977 12.3706 0.0754997 12.0329 0.0326534 11.701C0.00601932 11.4986 -0.00556074 11.2905 0.0025453 11.0863C0.0361275 10.2386 0.245726 9.44452 0.637132 8.71173C0.857732 8.29874 1.12465 7.92341 1.44484 7.59915C1.98679 7.0502 2.60632 6.65827 3.31676 6.41826C3.90502 6.22039 4.4985 6.24017 5.09603 6.23826C5.17478 6.23826 5.25352 6.26635 5.33863 6.28294V8.95429C5.17767 8.93067 5.01845 8.91918 4.86443 8.8828C4.52282 8.80301 4.19279 8.86812 3.87897 9.00089C3.14016 9.31303 2.67696 9.91687 2.50094 10.7563C2.35793 11.4367 2.49226 12.0859 2.86108 12.6565C3.23222 13.231 3.75332 13.5776 4.38154 13.6638C4.9507 13.7423 5.48628 13.5776 5.95296 13.1895C6.39242 12.8238 6.68424 12.3501 6.78846 11.7514C6.82436 11.5465 6.8423 11.3346 6.84288 11.1258C6.84752 7.48297 6.84867 3.84011 6.85041 0.196601C6.85041 0.134046 6.85041 0.0714914 6.85041 0H9.25269C9.28685 1.11833 9.64642 2.0841 10.3696 2.87944C11.0928 3.67414 11.9723 4.05203 13 4.09543V6.73998C12.7146 6.72083 12.4222 6.72657 12.1373 6.67742C11.4332 6.5555 10.7569 6.32188 10.1293 5.94463C9.86296 5.78442 9.61631 5.58462 9.36039 5.40334C9.3407 5.3893 9.31754 5.38292 9.29612 5.3727C9.28801 5.36504 9.28049 5.35675 9.27238 5.34909C9.2718 5.35802 9.27064 5.3676 9.27006 5.37653V5.37845Z" fill="white"/>
</svg>
